<svg xmlns="http://www.w3.org/2000/svg" viewBox="0 0 200 200">
  <defs>
    <linearGradient id="beeBodyGradient" x1="0%" y1="0%" x2="100%" y2="100%">
      <stop offset="0%" style="stop-color:#FFD700;stop-opacity:1" />
      <stop offset="50%" style="stop-color:#FFA500;stop-opacity:1" />
      <stop offset="100%" style="stop-color:#FF8C00;stop-opacity:1" />
    </linearGradient>
    <linearGradient id="wingGradient" x1="0%" y1="0%" x2="100%" y2="100%">
      <stop offset="0%" style="stop-color:#E6E6FA;stop-opacity:0.8" />
      <stop offset="100%" style="stop-color:#D8BFD8;stop-opacity:0.6" />
    </linearGradient>
  </defs>
  
  <!-- Bee body -->
  <ellipse cx="100" cy="100" rx="15" ry="35" fill="url(#beeBodyGradient)" />
  
  <!-- Black stripes -->
  <ellipse cx="100" cy="85" rx="15" ry="4" fill="#000" />
  <ellipse cx="100" cy="100" rx="15" ry="4" fill="#000" />
  <ellipse cx="100" cy="115" rx="15" ry="4" fill="#000" />
  
  <!-- Head -->
  <circle cx="100" cy="65" r="12" fill="#2C1810" />
  
  <!-- Eyes -->
  <ellipse cx="95" cy="60" rx="4" ry="6" fill="#000" />
  <ellipse cx="105" cy="60" rx="4" ry="6" fill="#000" />
  <ellipse cx="95" cy="59" rx="2" ry="3" fill="#FFF" opacity="0.3" />
  <ellipse cx="105" cy="59" rx="2" ry="3" fill="#FFF" opacity="0.3" />
  
  <!-- Antennae -->
  <path d="M 92 55 Q 85 45 80 40" stroke="#2C1810" stroke-width="2" fill="none" />
  <path d="M 108 55 Q 115 45 120 40" stroke="#2C1810" stroke-width="2" fill="none" />
  <circle cx="80" cy="40" r="2" fill="#2C1810" />
  <circle cx="120" cy="40" r="2" fill="#2C1810" />
  
  <!-- Wings -->
  <ellipse cx="75" cy="80" rx="20" ry="12" fill="url(#wingGradient)" transform="rotate(-20 75 80)" />
  <ellipse cx="125" cy="80" rx="20" ry="12" fill="url(#wingGradient)" transform="rotate(20 125 80)" />
  <ellipse cx="80" cy="95" rx="15" ry="8" fill="url(#wingGradient)" transform="rotate(-10 80 95)" />
  <ellipse cx="120" cy="95" rx="15" ry="8" fill="url(#wingGradient)" transform="rotate(10 120 95)" />
  
  <!-- Wing veins -->
  <path d="M 60 75 Q 75 80 85 85" stroke="#B8860B" stroke-width="1" fill="none" opacity="0.7" />
  <path d="M 140 75 Q 125 80 115 85" stroke="#B8860B" stroke-width="1" fill="none" opacity="0.7" />
  
  <!-- Legs -->
  <path d="M 90 120 L 85 135 L 80 140" stroke="#2C1810" stroke-width="2" fill="none" />
  <path d="M 100 125 L 100 140 L 95 145" stroke="#2C1810" stroke-width="2" fill="none" />
  <path d="M 110 120 L 115 135 L 120 140" stroke="#2C1810" stroke-width="2" fill="none" />
  
  <!-- Stinger -->
  <path d="M 100 135 L 100 145" stroke="#8B4513" stroke-width="2" fill="none" />
</svg>