<svg xmlns="http://www.w3.org/2000/svg" viewBox="0 0 200 200">
  <defs>
    <linearGradient id="bunnyGradient" x1="0%" y1="0%" x2="100%" y2="100%">
      <stop offset="0%" style="stop-color:#F5F5DC;stop-opacity:1" />
      <stop offset="50%" style="stop-color:#DEB887;stop-opacity:1" />
      <stop offset="100%" style="stop-color:#D2B48C;stop-opacity:1" />
    </linearGradient>
    <radialGradient id="earGradient" cx="50%" cy="50%" r="50%">
      <stop offset="0%" style="stop-color:#FFB6C1;stop-opacity:1" />
      <stop offset="100%" style="stop-color:#DEB887;stop-opacity:1" />
    </radialGradient>
  </defs>
  
  <!-- Body -->
  <ellipse cx="100" cy="130" rx="30" ry="35" fill="url(#bunnyGradient)" />
  
  <!-- Head -->
  <ellipse cx="100" cy="90" rx="25" ry="22" fill="url(#bunnyGradient)" />
  
  <!-- Ears -->
  <ellipse cx="85" cy="60" rx="8" ry="20" fill="url(#bunnyGradient)" transform="rotate(-15 85 60)" />
  <ellipse cx="115" cy="60" rx="8" ry="20" fill="url(#bunnyGradient)" transform="rotate(15 115 60)" />
  
  <!-- Inner ears -->
  <ellipse cx="85" cy="60" rx="4" ry="12" fill="url(#earGradient)" transform="rotate(-15 85 60)" />
  <ellipse cx="115" cy="60" rx="4" ry="12" fill="url(#earGradient)" transform="rotate(15 115 60)" />
  
  <!-- Eyes -->
  <circle cx="92" cy="85" r="4" fill="#000" />
  <circle cx="108" cy="85" r="4" fill="#000" />
  <circle cx="93" cy="84" r="1.5" fill="#FFF" />
  <circle cx="109" cy="84" r="1.5" fill="#FFF" />
  
  <!-- Nose -->
  <ellipse cx="100" cy="95" rx="2" ry="1.5" fill="#FFB6C1" />
  
  <!-- Mouth -->
  <path d="M 100 97 Q 95 100 92 98" stroke="#8B4513" stroke-width="1.5" fill="none" />
  <path d="M 100 97 Q 105 100 108 98" stroke="#8B4513" stroke-width="1.5" fill="none" />
  
  <!-- Whiskers -->
  <line x1="75" y1="90" x2="85" y2="88" stroke="#8B4513" stroke-width="1" />
  <line x1="75" y1="95" x2="85" y2="95" stroke="#8B4513" stroke-width="1" />
  <line x1="115" y1="88" x2="125" y2="90" stroke="#8B4513" stroke-width="1" />
  <line x1="115" y1="95" x2="125" y2="95" stroke="#8B4513" stroke-width="1" />
  
  <!-- Front paws -->
  <ellipse cx="85" cy="150" rx="6" ry="10" fill="url(#bunnyGradient)" />
  <ellipse cx="115" cy="150" rx="6" ry="10" fill="url(#bunnyGradient)" />
  
  <!-- Back paws -->
  <ellipse cx="80" cy="165" rx="8" ry="6" fill="url(#bunnyGradient)" />
  <ellipse cx="120" cy="165" rx="8" ry="6" fill="url(#bunnyGradient)" />
  
  <!-- Tail -->
  <circle cx="130" cy="135" r="8" fill="#FFF" />
  <circle cx="130" cy="135" r="6" fill="url(#bunnyGradient)" />
  
  <!-- Chest marking -->
  <ellipse cx="100" cy="120" rx="12" ry="8" fill="#FFF" opacity="0.8" />
</svg>