<svg xmlns="http://www.w3.org/2000/svg" viewBox="0 0 200 200">
  <defs>
    <radialGradient id="wingGradient" cx="50%" cy="50%" r="50%">
      <stop offset="0%" style="stop-color:#FF6B35;stop-opacity:0.9" />
      <stop offset="30%" style="stop-color:#F7931E;stop-opacity:0.8" />
      <stop offset="70%" style="stop-color:#FFD23F;stop-opacity:0.7" />
      <stop offset="100%" style="stop-color:#FF6B35;stop-opacity:0.9" />
    </radialGradient>
    <linearGradient id="bodyGradient" x1="0%" y1="0%" x2="100%" y2="100%">
      <stop offset="0%" style="stop-color:#2C1810;stop-opacity:1" />
      <stop offset="100%" style="stop-color:#5D4037;stop-opacity:1" />
    </linearGradient>
  </defs>
  
  <!-- Upper wings -->
  <ellipse cx="70" cy="70" rx="35" ry="25" fill="url(#wingGradient)" transform="rotate(-30 70 70)" />
  <ellipse cx="130" cy="70" rx="35" ry="25" fill="url(#wingGradient)" transform="rotate(30 130 70)" />
  
  <!-- Lower wings -->
  <ellipse cx="75" cy="120" rx="25" ry="20" fill="url(#wingGradient)" transform="rotate(-15 75 120)" />
  <ellipse cx="125" cy="120" rx="25" ry="20" fill="url(#wingGradient)" transform="rotate(15 125 120)" />
  
  <!-- Wing patterns -->
  <circle cx="65" cy="65" r="8" fill="#8B4513" opacity="0.6" />
  <circle cx="135" cy="65" r="8" fill="#8B4513" opacity="0.6" />
  <circle cx="70" cy="115" r="5" fill="#654321" opacity="0.7" />
  <circle cx="130" cy="115" r="5" fill="#654321" opacity="0.7" />
  
  <!-- Wing spots -->
  <circle cx="60" cy="75" r="3" fill="#FFF" opacity="0.8" />
  <circle cx="140" cy="75" r="3" fill="#FFF" opacity="0.8" />
  <circle cx="80" cy="125" r="2" fill="#FFF" opacity="0.8" />
  <circle cx="120" cy="125" r="2" fill="#FFF" opacity="0.8" />
  
  <!-- Body -->
  <ellipse cx="100" cy="100" rx="4" ry="40" fill="url(#bodyGradient)" />
  
  <!-- Head -->
  <circle cx="100" cy="60" r="6" fill="url(#bodyGradient)" />
  
  <!-- Antennae -->
  <path d="M 95 55 Q 90 45 85 40" stroke="#2C1810" stroke-width="1.5" fill="none" />
  <path d="M 105 55 Q 110 45 115 40" stroke="#2C1810" stroke-width="1.5" fill="none" />
  <circle cx="85" cy="40" r="1.5" fill="#2C1810" />
  <circle cx="115" cy="40" r="1.5" fill="#2C1810" />
  
  <!-- Eyes -->
  <circle cx="97" cy="58" r="1" fill="#000" />
  <circle cx="103" cy="58" r="1" fill="#000" />
</svg>