<svg xmlns="http://www.w3.org/2000/svg" viewBox="0 0 200 200">
  <defs>
    <linearGradient id="birdGradient" x1="0%" y1="0%" x2="100%" y2="100%">
      <stop offset="0%" style="stop-color:#8B4513;stop-opacity:1" />
      <stop offset="50%" style="stop-color:#D2691E;stop-opacity:1" />
      <stop offset="100%" style="stop-color:#A0522D;stop-opacity:1" />
    </linearGradient>
    <linearGradient id="wingGradient" x1="0%" y1="0%" x2="100%" y2="100%">
      <stop offset="0%" style="stop-color:#654321;stop-opacity:1" />
      <stop offset="100%" style="stop-color:#8B4513;stop-opacity:1" />
    </linearGradient>
  </defs>
  
  <!-- Bird body -->
  <ellipse cx="100" cy="120" rx="25" ry="40" fill="url(#birdGradient)" />
  
  <!-- Bird head -->
  <circle cx="100" cy="80" r="20" fill="url(#birdGradient)" />
  
  <!-- Beak -->
  <polygon points="120,80 135,75 135,85" fill="#FF8C00" />
  
  <!-- Eye -->
  <circle cx="110" cy="75" r="3" fill="#000" />
  <circle cx="111" cy="74" r="1" fill="#FFF" />
  
  <!-- Wings -->
  <ellipse cx="75" cy="110" rx="30" ry="15" fill="url(#wingGradient)" transform="rotate(-20 75 110)" />
  <ellipse cx="125" cy="110" rx="30" ry="15" fill="url(#wingGradient)" transform="rotate(20 125 110)" />
  
  <!-- Wing details -->
  <path d="M 50 105 Q 75 100 85 115" stroke="#654321" stroke-width="2" fill="none" />
  <path d="M 115 115 Q 125 100 150 105" stroke="#654321" stroke-width="2" fill="none" />
  
  <!-- Tail -->
  <ellipse cx="100" cy="160" rx="8" ry="20" fill="url(#wingGradient)" />
  
  <!-- Legs -->
  <line x1="90" y1="155" x2="85" y2="175" stroke="#FF8C00" stroke-width="3" />
  <line x1="110" y1="155" x2="115" y2="175" stroke="#FF8C00" stroke-width="3" />
  
  <!-- Feet -->
  <path d="M 80 175 L 75 180 M 85 175 L 80 180 M 90 175 L 85 180" stroke="#FF8C00" stroke-width="2" fill="none" />
  <path d="M 110 175 L 105 180 M 115 175 L 110 180 M 120 175 L 115 180" stroke="#FF8C00" stroke-width="2" fill="none" />
</svg>