<svg xmlns="http://www.w3.org/2000/svg" viewBox="0 0 200 200">
  <defs>
    <linearGradient id="frogGradient" x1="0%" y1="0%" x2="100%" y2="100%">
      <stop offset="0%" style="stop-color:#228B22;stop-opacity:1" />
      <stop offset="50%" style="stop-color:#32CD32;stop-opacity:1" />
      <stop offset="100%" style="stop-color:#006400;stop-opacity:1" />
    </linearGradient>
    <radialGradient id="eyeGradient" cx="50%" cy="50%" r="50%">
      <stop offset="0%" style="stop-color:#FFD700;stop-opacity:1" />
      <stop offset="70%" style="stop-color:#FFA500;stop-opacity:1" />
      <stop offset="100%" style="stop-color:#FF8C00;stop-opacity:1" />
    </radialGradient>
  </defs>
  
  <!-- Body -->
  <ellipse cx="100" cy="130" rx="35" ry="25" fill="url(#frogGradient)" />
  
  <!-- Head -->
  <ellipse cx="100" cy="90" rx="30" ry="25" fill="url(#frogGradient)" />
  
  <!-- Eye bulges -->
  <circle cx="85" cy="75" r="15" fill="url(#frogGradient)" />
  <circle cx="115" cy="75" r="15" fill="url(#frogGradient)" />
  
  <!-- Eyes -->
  <circle cx="85" cy="70" r="10" fill="url(#eyeGradient)" />
  <circle cx="115" cy="70" r="10" fill="url(#eyeGradient)" />
  
  <!-- Pupils -->
  <ellipse cx="85" cy="70" rx="3" ry="6" fill="#000" />
  <ellipse cx="115" cy="70" rx="3" ry="6" fill="#000" />
  
  <!-- Eye highlights -->
  <circle cx="87" cy="67" r="2" fill="#FFF" />
  <circle cx="117" cy="67" r="2" fill="#FFF" />
  
  <!-- Nostrils -->
  <circle cx="95" cy="85" r="1" fill="#006400" />
  <circle cx="105" cy="85" r="1" fill="#006400" />
  
  <!-- Mouth -->
  <path d="M 80 95 Q 100 105 120 95" stroke="#006400" stroke-width="3" fill="none" />
  
  <!-- Front legs -->
  <ellipse cx="70" cy="120" rx="8" ry="15" fill="url(#frogGradient)" transform="rotate(-30 70 120)" />
  <ellipse cx="130" cy="120" rx="8" ry="15" fill="url(#frogGradient)" transform="rotate(30 130 120)" />
  
  <!-- Back legs -->
  <ellipse cx="65" cy="145" rx="12" ry="20" fill="url(#frogGradient)" transform="rotate(-45 65 145)" />
  <ellipse cx="135" cy="145" rx="12" ry="20" fill="url(#frogGradient)" transform="rotate(45 135 145)" />
  
  <!-- Webbed feet -->
  <g fill="url(#frogGradient)">
    <ellipse cx="55" cy="160" rx="8" ry="5" transform="rotate(-30 55 160)" />
    <ellipse cx="145" cy="160" rx="8" ry="5" transform="rotate(30 145 160)" />
    <ellipse cx="60" cy="135" rx="6" ry="4" transform="rotate(-45 60 135)" />
    <ellipse cx="140" cy="135" rx="6" ry="4" transform="rotate(45 140 135)" />
  </g>
  
  <!-- Spots -->
  <circle cx="90" cy="110" r="3" fill="#006400" opacity="0.7" />
  <circle cx="110" cy="115" r="2" fill="#006400" opacity="0.7" />
  <circle cx="105" cy="135" r="2.5" fill="#006400" opacity="0.7" />
  <circle cx="85" cy="140" r="2" fill="#006400" opacity="0.7" />
  
  <!-- Throat -->
  <ellipse cx="100" cy="105" rx="12" ry="8" fill="#90EE90" opacity="0.6" />
</svg>