<svg xmlns="http://www.w3.org/2000/svg" viewBox="0 0 200 200">
  <defs>
    <linearGradient id="raccoonGradient" x1="0%" y1="0%" x2="100%" y2="100%">
      <stop offset="0%" style="stop-color:#696969;stop-opacity:1" />
      <stop offset="50%" style="stop-color:#808080;stop-opacity:1" />
      <stop offset="100%" style="stop-color:#2F4F4F;stop-opacity:1" />
    </linearGradient>
    <linearGradient id="chestGradient" x1="0%" y1="0%" x2="100%" y2="100%">
      <stop offset="0%" style="stop-color:#F5F5DC;stop-opacity:1" />
      <stop offset="100%" style="stop-color:#DCDCDC;stop-opacity:1" />
    </linearGradient>
  </defs>
  
  <!-- Body -->
  <ellipse cx="100" cy="130" rx="30" ry="35" fill="url(#raccoonGradient)" />
  
  <!-- Chest -->
  <ellipse cx="100" cy="135" rx="18" ry="20" fill="url(#chestGradient)" />
  
  <!-- Head -->
  <ellipse cx="100" cy="85" rx="22" ry="20" fill="url(#raccoonGradient)" />
  
  <!-- Snout -->
  <ellipse cx="100" cy="95" rx="10" ry="8" fill="url(#chestGradient)" />
  
  <!-- Eye mask -->
  <ellipse cx="88" cy="80" rx="8" ry="6" fill="#000" />
  <ellipse cx="112" cy="80" rx="8" ry="6" fill="#000" />
  <path d="M 80 82 Q 100 85 120 82" stroke="#000" stroke-width="4" fill="none" />
  
  <!-- Eyes -->
  <circle cx="88" cy="78" r="4" fill="#FFF" />
  <circle cx="112" cy="78" r="4" fill="#FFF" />
  <circle cx="88" cy="78" r="2" fill="#000" />
  <circle cx="112" cy="78" r="2" fill="#000" />
  <circle cx="89" cy="77" r="1" fill="#FFF" />
  <circle cx="113" cy="77" r="1" fill="#FFF" />
  
  <!-- Nose -->
  <ellipse cx="100" cy="98" rx="2" ry="1.5" fill="#000" />
  
  <!-- Mouth -->
  <path d="M 100 100 Q 95 103 92 101" stroke="#000" stroke-width="1" fill="none" />
  <path d="M 100 100 Q 105 103 108 101" stroke="#000" stroke-width="1" fill="none" />
  
  <!-- Ears -->
  <ellipse cx="85" cy="70" rx="6" ry="8" fill="url(#raccoonGradient)" transform="rotate(-20 85 70)" />
  <ellipse cx="115" cy="70" rx="6" ry="8" fill="url(#raccoonGradient)" transform="rotate(20 115 70)" />
  <ellipse cx="85" cy="70" rx="3" ry="4" fill="#FFB6C1" transform="rotate(-20 85 70)" />
  <ellipse cx="115" cy="70" rx="3" ry="4" fill="#FFB6C1" transform="rotate(20 115 70)" />
  
  <!-- Front paws -->
  <ellipse cx="80" cy="155" rx="6" ry="10" fill="url(#raccoonGradient)" />
  <ellipse cx="120" cy="155" rx="6" ry="10" fill="url(#raccoonGradient)" />
  
  <!-- Back legs -->
  <ellipse cx="85" cy="165" rx="8" ry="6" fill="url(#raccoonGradient)" />
  <ellipse cx="115" cy="165" rx="8" ry="6" fill="url(#raccoonGradient)" />
  
  <!-- Tail -->
  <ellipse cx="135" cy="140" rx="8" ry="25" fill="url(#raccoonGradient)" transform="rotate(30 135 140)" />
  
  <!-- Tail stripes -->
  <ellipse cx="135" cy="130" rx="8" ry="3" fill="#000" transform="rotate(30 135 130)" />
  <ellipse cx="135" cy="140" rx="8" ry="3" fill="#000" transform="rotate(30 135 140)" />
  <ellipse cx="135" cy="150" rx="8" ry="3" fill="#000" transform="rotate(30 135 150)" />
  
  <!-- Whiskers -->
  <line x1="75" y1="90" x2="85" y2="88" stroke="#000" stroke-width="1" />
  <line x1="75" y1="95" x2="85" y2="95" stroke="#000" stroke-width="1" />
  <line x1="115" y1="88" x2="125" y2="90" stroke="#000" stroke-width="1" />
  <line x1="115" y1="95" x2="125" y2="95" stroke="#000" stroke-width="1" />
</svg>