<svg xmlns="http://www.w3.org/2000/svg" viewBox="0 0 200 200">
  <defs>
    <linearGradient id="wolfGradient" x1="0%" y1="0%" x2="100%" y2="100%">
      <stop offset="0%" style="stop-color:#708090;stop-opacity:1" />
      <stop offset="50%" style="stop-color:#2F4F4F;stop-opacity:1" />
      <stop offset="100%" style="stop-color:#1C1C1C;stop-opacity:1" />
    </linearGradient>
    <linearGradient id="chestGradient" x1="0%" y1="0%" x2="100%" y2="100%">
      <stop offset="0%" style="stop-color:#F5F5DC;stop-opacity:1" />
      <stop offset="100%" style="stop-color:#D3D3D3;stop-opacity:1" />
    </linearGradient>
  </defs>
  
  <!-- Body -->
  <ellipse cx="100" cy="130" rx="35" ry="30" fill="url(#wolfGradient)" />
  
  <!-- Chest -->
  <ellipse cx="100" cy="135" rx="20" ry="18" fill="url(#chestGradient)" />
  
  <!-- Head -->
  <ellipse cx="100" cy="80" rx="25" ry="22" fill="url(#wolfGradient)" />
  
  <!-- Snout -->
  <ellipse cx="100" cy="95" rx="15" ry="10" fill="url(#wolfGradient)" />
  
  <!-- Nose -->
  <ellipse cx="100" cy="100" rx="3" ry="2" fill="#000" />
  
  <!-- Eyes -->
  <circle cx="90" cy="75" r="4" fill="#FFD700" />
  <circle cx="110" cy="75" r="4" fill="#FFD700" />
  <circle cx="90" cy="75" r="2" fill="#000" />
  <circle cx="110" cy="75" r="2" fill="#000" />
  <circle cx="91" cy="74" r="1" fill="#FFF" />
  <circle cx="111" cy="74" r="1" fill="#FFF" />
  
  <!-- Ears -->
  <path d="M 80 65 L 75 50 L 90 60 Z" fill="url(#wolfGradient)" />
  <path d="M 120 65 L 125 50 L 110 60 Z" fill="url(#wolfGradient)" />
  <path d="M 80 62 L 78 55 L 85 60 Z" fill="#FFB6C1" />
  <path d="M 120 62 L 122 55 L 115 60 Z" fill="#FFB6C1" />
  
  <!-- Mouth -->
  <path d="M 100 102 Q 95 105 90 103" stroke="#000" stroke-width="2" fill="none" />
  <path d="M 100 102 Q 105 105 110 103" stroke="#000" stroke-width="2" fill="none" />
  
  <!-- Legs -->
  <rect x="75" y="155" width="6" height="20" fill="url(#wolfGradient)" />
  <rect x="90" y="155" width="6" height="20" fill="url(#wolfGradient)" />
  <rect x="104" y="155" width="6" height="20" fill="url(#wolfGradient)" />
  <rect x="119" y="155" width="6" height="20" fill="url(#wolfGradient)" />
  
  <!-- Paws -->
  <ellipse cx="78" cy="177" rx="4" ry="3" fill="#2F4F4F" />
  <ellipse cx="93" cy="177" rx="4" ry="3" fill="#2F4F4F" />
  <ellipse cx="107" cy="177" rx="4" ry="3" fill="#2F4F4F" />
  <ellipse cx="122" cy="177" rx="4" ry="3" fill="#2F4F4F" />
  
  <!-- Tail -->
  <ellipse cx="140" cy="135" rx="8" ry="20" fill="url(#wolfGradient)" transform="rotate(45 140 135)" />
  
  <!-- Facial markings -->
  <path d="M 85 85 Q 100 88 115 85" stroke="url(#chestGradient)" stroke-width="2" fill="none" opacity="0.7" />
</svg>